HIERARCHY
ROOT SpineBase
{
  OFFSET 0.000000 0.000000 0.000000
  CHANNELS 6 Xposition Yposition Zposition Zrotation Xrotation Yrotation
  JOINT SpineMid
  {
    OFFSET 0.000000 36.320957 0.000000
    CHANNELS 3 Zrotation Xrotation Yrotation
    JOINT SpineShoulder
    {
      OFFSET -0.007636 26.411205 -0.921741
      CHANNELS 3 Zrotation Xrotation Yrotation
      JOINT Neck
      {
        OFFSET -0.064883 8.581328 -0.581179
        CHANNELS 3 Zrotation Xrotation Yrotation
        JOINT Head
        {
          OFFSET -2.603525 12.343369 6.534629
          CHANNELS 3 Zrotation Xrotation Yrotation
          End Site
          {
            OFFSET 0 0 0
          }
        }
      }
      JOINT ShoulderLeft
      {
        OFFSET -0.270999 -5.839815 -14.614262
        CHANNELS 3 Zrotation Xrotation Yrotation
        JOINT ElbowLeft
        {
          OFFSET 5.317367 -27.972303 -6.928647
          CHANNELS 3 Zrotation Xrotation Yrotation
          JOINT WristLeft
          {
            OFFSET 10.624781 -20.738990 -1.836129
            CHANNELS 3 Zrotation Xrotation Yrotation
            JOINT HandLeft
            {
              OFFSET 1.008747 -6.470724 1.617986
              CHANNELS 3 Zrotation Xrotation Yrotation
              JOINT HandTipLeft
              {
                OFFSET 3.406708 -7.519144 1.761233
                CHANNELS 3 Zrotation Xrotation Yrotation
                End Site
                {
                  OFFSET 0 0 0
                }
              }
              JOINT ThumbLeft
              {
                OFFSET -4.478667 0.073500 1.113179
                CHANNELS 3 Zrotation Xrotation Yrotation
                End Site
                {
                  OFFSET 0 0 0
                }
              }
            }
          }
        }
      }
      JOINT ShoulderRight
      {
        OFFSET 12.180782 -8.096678 11.442514
        CHANNELS 3 Zrotation Xrotation Yrotation
        JOINT ElbowRight
        {
          OFFSET 5.021990 -26.626594 7.916531
          CHANNELS 3 Zrotation Xrotation Yrotation
          JOINT WristRight
          {
            OFFSET 4.507224 -25.148467 2.550339
            CHANNELS 3 Zrotation Xrotation Yrotation
            JOINT HandRight
            {
              OFFSET 1.052395 -2.463389 8.383002
              CHANNELS 3 Zrotation Xrotation Yrotation
              JOINT HandTipRight
              {
                OFFSET 1.335863 0.501322 2.290959
                CHANNELS 3 Zrotation Xrotation Yrotation
                End Site
                {
                  OFFSET 0 0 0
                }
              }
              JOINT ThumbRight
              {
                OFFSET 0.096196 0.450449 -2.462614
                CHANNELS 3 Zrotation Xrotation Yrotation
                End Site
                {
                  OFFSET 0 0 0
                }
              }
            }
          }
        }
      }
    }
  }
  JOINT HipLeft
  {
    OFFSET -4.206551 2.159242 -6.939311
    CHANNELS 3 Zrotation Xrotation Yrotation
    JOINT KneeLeft
    {
      OFFSET 14.259815 -31.575170 1.685842
      CHANNELS 3 Zrotation Xrotation Yrotation
      JOINT AnkleLeft
      {
        OFFSET -1.121012 -37.831606 6.539015
        CHANNELS 3 Zrotation Xrotation Yrotation
        JOINT FootLeft
        {
          OFFSET 4.783843 -6.679913 -1.327956
          CHANNELS 3 Zrotation Xrotation Yrotation
          End Site
          {
            OFFSET 0 0 0
          }
        }
      }
    }
  }
  JOINT HipRight
  {
    OFFSET 4.694739 -0.601034 -0.370993
    CHANNELS 3 Zrotation Xrotation Yrotation
    JOINT KneeRight
    {
      OFFSET 17.133402 -29.023691 16.629467
      CHANNELS 3 Zrotation Xrotation Yrotation
      JOINT AnkleRight
      {
        OFFSET -1.126399 -36.459702 12.471910
        CHANNELS 3 Zrotation Xrotation Yrotation
        JOINT FootRight
        {
          OFFSET 9.911010 -2.868473 -7.967213
          CHANNELS 3 Zrotation Xrotation Yrotation
          End Site
          {
            OFFSET 0 0 0
          }
        }
      }
    }
  }
}
MOTION
Frames: 9
Frame Time: 0.033333
-19.765396 74.762806 303.944616 -0.000000 0.000000 -36.423847 0.000000 0.000000 36.423847 -0.000000 0.000000 0.000000 -0.000000 0.000000 0.000000 0.000000 0.000000 0.000000 -0.000000 0.000000 0.000000 -0.000000 0.000000 0.000000 -0.000000 0.000000 0.000000 -0.000000 0.000000 0.000000 0.000000 0.000000 0.000000 0.000000 0.000000 0.000000 -0.000000 0.000000 0.000000 -0.000000 0.000000 0.000000 -0.000000 0.000000 0.000000 -0.000000 0.000000 0.000000 0.000000 0.000000 0.000000 0.000000 0.000000 0.000000 0.000000 0.000000 36.423847 -0.000000 0.000000 0.000000 -0.000000 0.000000 0.000000 0.000000 0.000000 0.000000 0.000000 0.000000 36.423847 -0.000000 0.000000 0.000000 -0.000000 0.000000 0.000000 0.000000 0.000000 0.000000
-20.034741 74.748868 304.175524 -0.169465 -0.219135 -36.239081 0.007141 0.276925 36.238739 -0.000000 0.000000 0.000000 -1.362894 0.173664 0.761539 0.000000 0.000000 0.000000 -0.000000 0.000000 0.000000 -0.000000 0.000000 0.000000 -2.606759 -0.779189 -0.792577 1.685104 0.445571 0.389252 0.000000 0.000000 0.000000 0.000000 0.000000 0.000000 -0.000000 0.000000 0.000000 -0.000000 0.000000 0.000000 -0.000000 0.000000 0.000000 -0.000000 0.000000 0.000000 0.000000 0.000000 0.000000 0.000000 0.000000 0.000000 0.007141 0.276925 36.238739 -0.000000 0.000000 0.000000 -4.845915 -4.118317 -2.244813 0.000000 0.000000 0.000000 0.007141 0.276925 36.238739 -0.000000 0.000000 0.000000 -1.708128 -1.622909 -0.975907 0.000000 0.000000 0.000000
-20.234630 74.741287 304.353733 -0.271741 -0.378556 -36.167859 -0.004029 0.465973 36.166978 -0.000000 0.000000 0.000000 -2.445493 0.305643 1.370010 0.000000 0.000000 0.000000 -0.000000 0.000000 0.000000 -0.295995 -0.696986 -0.333291 -4.436028 -0.865151 -1.106322 3.135194 0.987502 0.740552 0.000000 0.000000 0.000000 0.000000 0.000000 0.000000 -0.000000 0.000000 0.000000 -0.000000 0.000000 0.000000 -0.000000 0.000000 0.000000 -0.000000 0.000000 0.000000 0.000000 0.000000 0.000000 0.000000 0.000000 0.000000 -0.004029 0.465973 36.166978 -0.000000 0.000000 0.000000 -7.497070 -6.216297 -3.576673 0.000000 0.000000 0.000000 0.816024 0.614537 36.372741 -0.748346 0.366721 -0.211100 -3.133629 -2.938184 -1.832162 0.000000 0.000000 0.000000
-20.365064 74.740063 304.479241 -0.306573 -0.478030 -36.213839 -0.035068 0.566805 36.212733 -0.000000 0.000000 0.000000 -3.247599 0.404871 1.823969 0.000000 0.000000 0.000000 -0.000000 0.000000 0.000000 -0.439071 -0.998511 -0.477816 -5.940673 -1.335163 -1.511613 4.354331 1.619981 1.058014 0.000000 0.000000 0.000000 0.000000 0.000000 0.000000 -0.000000 0.000000 0.000000 -0.000000 0.000000 0.000000 -0.000000 0.000000 0.000000 -0.000000 0.000000 0.000000 0.000000 0.000000 0.000000 0.000000 0.000000 0.000000 -0.035068 0.566805 36.212733 -0.000000 0.000000 0.000000 -7.823562 -6.453150 -3.733783 0.000000 0.000000 0.000000 1.062730 0.714234 36.443443 -0.760326 1.509700 -0.201755 -4.377278 -4.838345 -2.600137 0.000000 0.000000 0.000000
-20.426042 74.745196 304.552050 -0.273729 -0.517343 -36.379085 -0.086464 0.578873 36.378286 -0.000000 0.000000 0.000000 -3.770018 0.478091 2.122966 0.000000 0.000000 0.000000 -0.703570 0.362768 0.245555 0.117794 -1.632541 -0.852471 -6.974543 -1.839576 -1.821052 5.350516 2.339747 1.345372 0.000000 0.000000 0.000000 0.000000 0.000000 0.000000 -0.000000 0.000000 0.000000 -0.000000 0.000000 0.000000 -0.000000 0.000000 0.000000 -0.000000 0.000000 0.000000 0.000000 0.000000 0.000000 0.000000 0.000000 0.000000 -0.342753 1.281584 36.717669 -0.214703 -0.716501 -0.336564 -5.818504 -4.856808 -2.689663 0.000000 0.000000 0.000000 1.201027 0.676677 36.585157 -0.850324 1.900042 -0.176069 -4.952935 -5.558189 -3.017456 0.000000 0.000000 0.000000
-20.417566 74.756686 304.572159 -0.173001 -0.496299 -36.663908 -0.157578 0.501409 36.663848 -0.000000 0.000000 0.000000 -4.013716 0.529760 2.266963 0.000000 0.000000 0.000000 -0.822888 0.335749 0.270237 0.099047 -1.845750 -0.992377 -7.543925 -2.384039 -2.035825 6.132186 3.145490 1.604962 0.000000 0.000000 0.000000 0.000000 0.000000 0.000000 -0.000000 0.000000 0.000000 -0.000000 0.000000 0.000000 -0.000000 0.000000 0.000000 -0.000000 0.000000 0.000000 0.000000 0.000000 0.000000 0.000000 0.000000 0.000000 -0.157578 0.501409 36.663848 -0.000000 0.000000 0.000000 -1.577299 -1.294951 -0.639399 0.000000 0.000000 0.000000 1.232238 0.501324 36.799141 -0.860114 2.234546 -0.104075 -4.967808 -5.764601 -3.105962 0.000000 0.000000 0.000000
-20.033536 74.788968 304.276730 0.376008 -0.071935 -38.254240 -0.339807 -0.176318 38.253953 -0.000000 0.000000 0.000000 -3.736803 0.494777 2.108935 0.000000 0.000000 0.000000 -0.974150 0.210815 0.283495 0.043824 -1.963996 -1.118713 -7.828061 -2.951511 -2.208553 7.233371 3.786847 1.796797 0.000000 0.000000 0.000000 0.000000 0.000000 0.000000 -0.000000 0.000000 0.000000 -0.000000 0.000000 0.000000 -0.000000 0.000000 0.000000 -0.000000 0.000000 0.000000 0.000000 0.000000 0.000000 0.000000 0.000000 0.000000 -0.339807 -0.176318 38.253953 -0.000000 0.000000 0.000000 5.823073 5.468830 2.373201 0.000000 0.000000 0.000000 0.943167 -0.663367 37.975770 -0.540978 2.746298 0.301669 -3.858540 -5.076547 -2.652018 0.000000 0.000000 0.000000
-19.955385 74.857555 304.246326 0.518401 -0.011468 -37.552970 -0.417977 -0.306869 37.551903 -0.000000 0.000000 0.000000 -3.445974 0.542387 1.962927 0.000000 0.000000 0.000000 -1.064613 0.056701 0.275466 -0.027320 -2.003672 -1.201678 -7.109747 -3.814554 -2.188815 7.737492 4.931948 1.980681 0.000000 0.000000 0.000000 0.000000 0.000000 0.000000 -0.000000 0.000000 0.000000 -0.000000 0.000000 0.000000 -0.000000 0.000000 0.000000 -0.000000 0.000000 0.000000 0.000000 0.000000 0.000000 0.000000 0.000000 0.000000 -0.417977 -0.306869 37.551903 -0.000000 0.000000 0.000000 13.666309 13.330750 4.736234 0.000000 0.000000 0.000000 0.769179 -0.984307 37.127619 -0.343673 2.906300 0.456385 -2.508487 -3.932056 -1.877961 0.000000 0.000000 0.000000
-19.907132 74.861175 304.264932 0.623415 -0.008046 -37.488046 -0.499571 -0.373020 37.486463 -0.000000 0.000000 0.000000 -2.955549 0.559992 1.702324 0.000000 0.000000 0.000000 -1.078779 -0.096579 0.248446 -0.144663 -2.011249 -1.250516 -6.282341 -4.420587 -2.080307 7.835967 6.190363 2.243336 0.000000 0.000000 0.000000 0.000000 0.000000 0.000000 -0.000000 0.000000 0.000000 -0.000000 0.000000 0.000000 -0.000000 0.000000 0.000000 -0.000000 0.000000 0.000000 0.000000 0.000000 0.000000 0.000000 0.000000 0.000000 -0.499571 -0.373020 37.486463 -0.000000 0.000000 0.000000 20.607814 20.539852 5.956675 0.000000 0.000000 0.000000 0.587726 -1.142616 36.979955 -0.247726 2.981149 0.526078 -0.769528 -2.415632 -0.841853 0.000000 0.000000 0.000000
